<mxfile host="app.diagrams.net" agent="Mozilla/5.0 (Windows NT 10.0; Win64; x64) AppleWebKit/537.36 (KHTML, like Gecko) Chrome/137.0.0.0 Safari/537.36 Edg/137.0.0.0" version="27.1.4">
  <diagram name="PÃ¡gina-1" id="ICyTmdDjHJLPwIP22Jcq">
    <mxGraphModel dx="2057" dy="1949" grid="1" gridSize="10" guides="1" tooltips="1" connect="1" arrows="1" fold="1" page="1" pageScale="1" pageWidth="827" pageHeight="1169" math="0" shadow="0" adaptiveColors="none">
      <root>
        <mxCell id="0" />
        <mxCell id="1" parent="0" />
        <mxCell id="VOzqcMn7r2U2-otNPr81-15" value="" style="shape=image;verticalLabelPosition=bottom;labelBackgroundColor=default;verticalAlign=top;aspect=fixed;imageAspect=0;image=data:image/jpeg,/9j/4AAQSkZJRgABAQAAAQABAAD/2wCEAAYGBgYHBgcICAcKCwoLCg8ODAwODxYQERAREBYiFRkVFRkVIh4kHhweJB42KiYmKjY+NDI0PkxERExfWl98fKcBBgYGBgcGBwgIBwoLCgsKDw4MDA4PFhAREBEQFiIVGRUVGRUiHiQeHB4kHjYqJiYqNj40MjQ+TERETF9aX3x8p//CABEIAm4DhQMBIgACEQEDEQH/xAAtAAEBAAMBAQEAAAAAAAAAAAAABAIDBQEGBwEBAAAAAAAAAAAAAAAAAAAAAP/aAAwDAQACEAMQAAAC+qAYaCpMKUwpTClMKUwpTClMKUvpSmFKYUphSmFKYUphSmFKYUphSmFKYUphSmFKYUphSmFKYUphSmFKYUphSmFKYUphSmFKYUphSmFKYUphSmFKYUphSmFKYUphSmFKYUphSmFKYUphSmFKYUpvCpq2gAHOuhsNWzmjo4zTnUnj1nYRSHXx8gOn7w9x19MdZQzGDMYMxgzGDMYMxgzGDMYMxgzGDMYMxgzGDMYMxgzGDMYMxgzGDMYMxgzGDMYMxgzGDMYMxgzGDMYMxgzGDMYMxgzGDMYMxgzGDMYMxgzGDMYMxgzGDMYMxgzE9GncAAc2mfokykTKRMpEykTKRMpEu7YAAAAAAAAAAAAAAAAAAAAAAAAAAAAAAAAAAAAAAAAAAAAAANO7TuAAOd0ed0QAAAAAAAAA1aipokOknFCcUIN5Qn1lieU6ScUJNhvT4lQAAAAACTMoSynUaPChHsKE4oRixHtN6PYUNHhQl3mYAAAAAAGOj02sdJQkFafEqahtSipLtNqXabWHpnlo8KAad2ncAAc7o87oh56Dw9Y+nrzEzath6wGbVsPXg9YZk1M1B7wu4Pnsfox8zn9GPl8vph83r+oHzdHcHzj6MfK9jpD2eicoAPD1j4ZtXhua8z3HLE1b9G8m4n0nh8zl9IPkd/04+Z9+lHzG76EfMZ/SD5rD6gR2+eiajQUAJZzpOTkdRzMDrOZkdFzNR2HnpPRNvMvMR8/N9T4cOf6Xw4GP0Pp83T2/D5ujuj53X9MNe/AZz7dBUDTu07gADm/PfRfGkf3v559sd/n7hIrEmVXhr0ViHfvEntQn1WiPpacDLfzrDc5t5n5omOgg2Fjl7DoItZ0fIMTpNVBr9zGGiqYpTDOGvwl8r9NE9/hNs2+lOnXOU7Z9Bf7zaCphGXubkdBz/S72HUdJNaYebBr9zGGmnnnQTDd5qG7zUN+OobvdA2e6hTr1ajdvh1nT859Rucyc7jjYnacj063vI8Ov7z7DYABNTOUA07tO4AA51M3ROT1fQAAAAAAABNu1UGvP0YebBq92DV7sGtsGGG4a9gANG+coAAAAAxyxNWWiM6OXO6Bt1w6S3OTE6PkPpch2FmYAAJ6JikAAAAAAE9GjeAAePQABr2AAAnomKQad2ncAAc7o87ogAAAAAAAAGjPZoN6X0pTClMKUwpTClMKUwpTCmX3cZvPQAAAB56JateopTClMKUwp8nFPk4pTClMKUwz983AAAAAAAE1Pk5SnFCcUJxQnxKkewoTihOKE4ol93mQNO7TuAAOd0ed0QAAAAAAAAAAAAAAAAAAAAAAAAAAAAAAAAAAAAAAAAAAAAABr2azHdp3AAAAAGndp3AAHO6PO6IAAAAAAAAAAAAAAAAAAAAAAAAAAAAAAAAAAAAAAAAAAAAAcsdTXBoOpt5np03L8OqAAADTu07gADndHndEAAAAAAAAAAAAAAAAAAAAAAAAAAAAAAAAAAAAAAAAAAAAAwZjHXu1mrfr3GPmYAAAA07tO4AA53R53RAAAAAAAAAAAAAAAAAAAAAAAAAAAAAAAAAAAAAAAAAACfwpT6yxzaSlNgWS+jCybAsRixHmUpxQm9KAad2ncAAc7o87ogAAAAAAAAAAAAAAAAAAAAAAAAAAAAAAAAAAAAAAAAAE9GjeOd0R8/N9SPnZPrB8vu+i9PmsPpx89o+pHzmv6YatwJ6JygGndp3AAHO6PO6IAAAAAAAAAAAAAAAAAAAAAAAAAAAAAAAAAAAAAAAAABo36N4AAAAAAAAnonKAad2ncAAc7o87ogAAAAAAAAAAAAAAAAAAAAAAAAAAAAAAAAAAAAAAAAAGjfp3AAAAAAAACeicoBp3adwABzujzuiAAAAAAAAAAAAAAAAAAAAAAAAAAAAAAAAAAAAAAAAAATU+aChOKE4oTihPgVo9hQnFCcUJxRLlvPQad2ncAAc7o87ogAAAAAAAAAAAAAAAAAAAAAAAAAAAAAAAAAAAAAAAAAAAAADXs1mO7TuAAAAANO7TuAAOd0ed0QAAAAAAAAAAAAAAAAAAAAAAAAAAAAAAAAAAAAAAAAAAABq24kWFYl1dHAjz27yXCvwz24ZgAAGndp3AAHO6PO6IAAAAAAAAAAAAAAAAAAAAAAAAAAAAAAAAAAAAAAAAAAAAAA17NZju07gAAAADTu07gADndHndEAAAAAAAAAAAAAAAAAAAAAAAAAAAAAAAAAAAAAAAAAANGJS0jcnxKk4oneGNcmRSmFKcUNI3J/TeDTu07gADndHndEAAAAAAAAAAAAAAAAAAAAAAAAAAAAAAAAAAAAAAAAAAnonoAJ+H9HpOHR1cTju34cHb2Mz5zb3Rxux5uPQJqZygGndp3AAHO6PO6IAAAAAAAAAAAAAAAAAAAAAAAAAAAAAAAAAAAAAAAAABNt16ilp2nqTwsSipBsK0tJ62DW2DW2DXpqnKAad2ncAAc7o87ogAAAAAAAAAAAAAAAAAAAAAAAAAAAAAAAAAAAAAAAAAE+Xm807MhP5SJs9w0eUDRnsAAACeicoBp3adwABzujzuiAAAAAAAAAAAAAAAAAAAAAAAAAAAAAAAAAAAAAAAAAATU46ClOKE4oTihPiVJMyhOKE4oTiib3aZg07tO4AA53R53RAAAAAAAAAAAAAAAAAAAAAAAAAAAAAAAAAAAAAAAAAAAAAAGvZrMd2ncAAAAAad2ncAAc7o87ogAAAAAAAAAAAAAAAAAAAAAAAAAAAAAAAAAAAAAAAAAAADz2Is85eJ2NfOwOpny8Dsecjw7KC8AAA07tO4AA53R53RAAAAAAAAAAAAAAAAAAAAAAAAAAAAAAAAAAAAAAAAAAAAAHno8xz1jPVuPPQAAAA07tO4AA53R53RAAAAAAAAAAAAAAAAAAAAAAAAAAAAAAAAAAAAAAAAABiZJdhuTihOKE4oj2Ymq+PYUJxQnFCcUNOBSwzNO7TuAAOd0ed0QAAAAAAAAAAAAAAAAAAAAAAAAAAAAAAAAAAAAAAAABNTMUzU/Ln1D5vw+j94Ux9O+fnPqMODqPonzXh9VjwMT6L35/WfSY8DSfTvnvoSamak07tO4AA53R53RAAAAAAAAAAAAAAAAAAAAAAAAAAAAAAAAAAAAAAAAAE1MxTjkMIugMGYx8zGPmYxZDFkMWQx8zGGYTUzUmndp3AAHO6PO6IAAAAAAAAAAAAAAAAAAAAAAAAAAAAAAAAAAAAAAAAAmpmKQAAAAAAAAATUzUmndp3AAHO6PO6IAAAAAAAAAAAAAAAAAAAAAAAAAAAAAAAAAAAAAAAAAmpmKQAAAAAAAAATUzUmndp3AAHO6PO6IAAAAAAAAAAAAAAAAAAAAAAAAAAAAAAAAAAAAAAAAAmpmKXnoAAAAAABH77sNG/XtNdMtRp3adwABzujzuiAAAAAAAAAAAAAAAAAAAAAAAAAAAAAAAAAAAAAAAAAPPRN7QJ1AnUCdQJ8atZozy3E6gTqBOoE/lI89DTu07gADndHndEAAAAAAAAAAAAAAAAAAAAAAAAAAAAAAAAAAAAAAAAAAAAAAa9k5lumpAAAAANO7TuAAOd0ed0QAAAAAAAAAAAAAAAAAAAAAAAAAAAAAAAAAAAAAAAAAAAAADznbPgT7jpfmf3p0QAAAAad2ncAAc7o87ogAAAAAAAAAAAAAAAAAAAAAAAAAAAAAAAAAAAAAAAAAAAAAEP5/+mQHwH3y8zAAAABp3adwABzujGLEgrSCtIK0grSCtIK0grSCtIK0grSCtIK0grSCtIK0grSCtIK0grSCtIK0grSCtIK0grSCtIK0grSCtIK0grSCtIK0grSCtIK0grSCtIK0grSCtIK0grSCtIK0grSCtIK0grSCtIK0grSeG7dNSAAAAAAAAAAAAAAAAAAAAAAAAAAAAAAAAAAAAAAAAAAAAAAAAAAAAAAAAAAf/8QAAv/aAAwDAQACAAMAAAAhAEAAAAAAAIAAAAAAAAAAAAAAAAAAAAAAAAAAAAAAAAAAAAAAAAAAAAEIAAsws88c0MQwwwwwwwwwwwwwwwwwwwwwwwwwwwwwwwwwwwwwwwwwwwwwgAAIwAQAgAwAAAAAAAAAAAAAAAAAAAAAAAAAAAAAAAAAAAAAAAAAAAAAAAAAoAAAAAAAAAMEAEMIIMIMAAAAAAAEIEIIAMEEAAAAAAAc0888w88wkAAAAgAAAAAIIAAsMc0sIgssQAAEAIUo0cwEEYEoYAMEMMEIgI0kIkwwsIAAAAkYc8EssMMI4AQwIIYYwgAkIkoY4gMMIswwwUAwwQggUQcwIQskAAQAAAA4QAAAAAAAAwQAgwAAgAEAAAAAUs8Is4QAAAEAAAAAAAoAAwAAgAAEAAAAoAAAAAAAAAQMMMMMMMMEIAAAAQsMMMMcMMMoAAAAAAAEMMMIMMMIIAAAAoAAAAAAAAAAAAAAAAAAAAAAAAAAAAAAAAAAAAAAAAAAAAAAUoAAAAAAAAoAAAAAAAAAAAAAAAAAAAAAAAAAAAAAAAAAAAAAAAAAAAAAAYwMAAAAAAAoAAAAAAAAAAAAAAAAAAAAAAAAAAAAAAAAAAAAAAAAAAAAAQkwAAAAAAAAoAAAAAAAAAAAAAAAAAAAAAAAAAAAAAAAAAAAAAAAAAAIAEIcMMMAEAAAAoAAAAAAAAAAAAAAAAAAAAAAAAAAAAAAAAAAAAAAAAAAoQQco8wsgAAAAAoAAAAAAAAAAAAAAAAAAAAAAAAAAAAAAAAAAAAAAAAAAoAAAAAAAAAAAAAoAAAAAAAAAAAAAAAAAAAAAAAAAAAAAAAAAAAAAAAAAAgAAAAAAAAEAAAAoAAAAAAAAAAAAAAAAAAAAAAAAAAAAAAAAAAAAAAAAAAIAAAEAAAEQAAAAoAAAAAAAAAAAAAAAAAAAAAAAAAAAAAAAAAAAAAAAAAAAAAAQoAAAAAAAAoAAAAAAAAAAAAAAAAAAAAAAAAAAAAAAAAAAAAAAAAAAAAAYo0IoAAAAAAoAAAAAAAAAAAAAAAAAAAAAAAAAAAAAAAAAAAAAAAAAAAAAAUoAAAAAAAAoAAAAAAAAAAAAAAAAAAAAAAAAAAAAAAAAAAAAAAAAAAMAIAAoAMAEAAAAoAAAAAAAAAAAAAAAAAAAAAAAAAAAAAAAAAAAAAAAAAAIAskwcUMAQAAAAoAAAAAAAAAAAAAAAAAAAAAAAAAAAAAAAAAAAAAAAAAAMgMAMIAAAAAAAAoAAAAAAAAAAAAAAAAAAAAAAAAAAAAAAAAAAAAAAAAAAowwwQAAAAAAAAAoAAAAAAAAAAAAAAAAAAAAAAAAAAAAAAAAAAAAAAAAAAEMMMIEMMMEAAAAoAAAAAAAAAAAAAAAAAAAAAAAAAAAAAAAAAAAAAAAAAAAAAAUgAAAAAAAAoAAAAAAAAAAAAAAAAAAAAAAAAAAAAAAAAAAAAAAAAAAAAUwQAQIAAAAAAoAAAAAAAAAAAAAAAAAAAAAAAAAAAAAAAAAAAAAAAAAAAAAQgYgAAAAAAAoAAAAAAAAAAAAAAAAAAAAAAAAAAAAAAAAAAAAAAAAAEIMMMIsMMMEIAAAoAAAAAAAAAAAAAAAAAAAAAAAAAAAAAAAAAAAAAAAAAUAAEEQIMkQIAAAAoAAAAAAAAAAAAAAAAAAAAAAAAAAAAAAAAAAAAAAAAAUQAwQAAAAQgAAAAoAAAAAAAAAAAAAAAAAAAAAAAAAAAAAAAAAAAAAAAAAUAAAAAAAAAAAAAAoAAAAAAAAAAAAAAAAAAAAAAAAAAAAAAAAAAAAAAAAAUAAAAAAAAAAAAAAoAAAAAAAAAAAAAAAAAAAAAAAAAAAAAAAAAAAAAAAAAUIAAAAAAAs4IAAAoAAAAAAAAAAAAAAAAAAAAAAAAAAAAAAAAAAAAAAAAAQAAAAUgAAAgAAAAoAAAAAAAAAAAAAAAAAAAAAAAAAAAAAAAAAAAAAAAAAAAAAAUoAAAAAAAAoAAAAAAAAAAAAAAAAAAAAAAAAAAAAAAAAAAAAAAAAAAAAAAAUAAAAAAAAoAAAAAAAAAAAAAAAAAAAAAAAAAAAAAAAAAAAAAAAAAAAAAAMcAAAAAAAAEAAAAAAAAAAAAAAAAAAAAAAAAAAAAAAAAAAAAAAAAAAAAAAAAAAAAEIAAAAAAAAAAAAAAAAAAAAAAAAAAAAAAAAAAAAAAAAAAAAAAAAAAAAAAAAAA//8QAAv/aAAwDAQACAAMAAAAQAEAAAAAAAAAAAAAAAAAAAAAAAAAAAAAAAAAAAAAAAAAAAAAAAAAAAAAAAAQM0Mgw8sgAAAAAAAAAAAAAAAAAAAAAAAAAAAAAAAAAAAAAAAAAAAAAgAAwQwwwQwwAAAAAAAAAAAAAAAAAAAAAAAAAAAAAAAAAAAAAAAAAAAAAAAAAAAAAAAAAAAEIEMAEAAIAAAAAAAEAEAEAAAEEAAAAAAAI08ww484wIAAAAIIEEIMAMAA8gw4Uc8AEgAAEIEQwUQcIoE444AIIMEMIckQsYwkoQwAAAAwAc8gs8YcUE4wIw8gssMEsoQQIMk00Ew8csoMM888MMYQkM0EEMMMAAAAAwAAAAAAAAkMc8cssc8oAAAAAQgogMcUc88sAAAAAAAkcM8MMM888AAAAAAAAAAAAAA088888888oIAAAAAkc888s8884AAAAAAAwwwwwwww00AAAAAAAAAAAAAAAAAAAAAAAAAAAAAAAAAAAAAAAAAAAAAAAAAAAAoAAAAAAAAAAAAAAAAAAAAAAAAAAAAAAAAAAAAAAAAAAAAAAAAAAAAAAMcYEAAAAAAAAAAAAAAAAAAAAAAAAAAAAAAAAAAAAAAAAAAAAAAAAAAAAAQAIAAAAAAAAAAAAAAAAAAAAAAAAAAAAAAAAAAAAAAAAAAAAAAAAAAAMMMMMMAEAMAAAAAAAAAAAAAAAAAAAAAAAAAAAAAAAAAAAAAAAAAAAAAAAcsQcwcAs8sAAAAAAAAAAAAAAAAAAAAAAAAAAAAAAAAAAAAAAAAAAAAAAA8888888888AAAAAAAAAAAAAAAAAAAAAAAAAAAAAAAAAAAAAAAAAAAAAAA0888888884AAAAAAAAAAAAAAAAAAAAAAAAAAAAAAAAAAAAAAAAAAAAAAAEwwwwwwwwEAAAAAAAAAAAAAAAAAAAAAAAAAAAAAAAAAAAAAAAAAAAAAAAAAAAEoAAAAAAAAAAAAAAAAAAAAAAAAAAAAAAAAAAAAAAAAAAAAAAAAAAAAAEs00kAAAAAAAAAAAAAAAAAAAAAAAAAAAAAAAAAAAAAAAAAAAAAAAAAAAAAAAoAAAAAAAAAAAAAAAAAAAAAAAAAAAAAAAAAAAAAAAAAAAAAAAAAAAMAIMMAAAAMAAAAAAAAAAAAAAAAAAAAAAAAAAAAAAAAAAAAAAAAAAAAAAAc8IQ4gss88AAAAAAAAAAAAAAAAAAAAAAAAAAAAAAAAAAAAAAAAAAAAAAAgIM8sI888sAAAAAAAAAAAAAAAAAAAAAAAAAAAAAAAAAAAAAAAAAAAAAAA8MMscs8888AAAAAAAAAAAAAAAAAAAAAAAAAAAAAAAAAAAAAAAAAAAAAAA8www0wwwwgAAAAAAAAAAAAAAAAAAAAAAAAAAAAAAAAAAAAAAAAAAAAAAAAAAAAoAAAAAAAAAAAAAAAAAAAAAAAAAAAAAAAAAAAAAAAAAAAAAAAAAAAAAQwYoIIAAAAAAAAAAAAAAAAAAAAAAAAAAAAAAAAAAAAAAAAAAAAAAAAAAAAQ0YgAAAAAAAAAAAAAAAAAAAAAAAAAAAAAAAAAAAAAAAAAAAAAAAAAAIAAAYoAAAEIAAAAAAAAAAAAAAAAAAAAAAAAAAAAAAAAAAAAAAAAAAAAAQsQA4osgw8woAAAAAAAAAAAAAAAAAAAAAAAAAAAAAAAAAAAAAAAAAAAAAA8MsMcMc8c8oAAAAAAAAAAAAAAAAAAAAAAAAAAAAAAAAAAAAAAAAAAAAAA8888888888oAAAAAAAAAAAAAAAAAAAAAAAAAAAAAAAAAAAAAAAAAAAAAA8888888888oAAAAAAAAAAAAAAAAAAAAAAAAAAAAAAAAAAAAAAAAAAAAAA88888888UQoAAAAAAAAAAAAAAAAAAAAAAAAAAAAAAAAAAAAAAAAAAAAAAQwwwg4wwwAAAAAAAAAAAAAAAAAAAAAAAAAAAAAAAAAAAAAAAAAAAAAAAAAAAAEgAAAAAAAAAAAAAAAAAAAAAAAAAAAAAAAAAAAAAAAAAAAAAAAAAAAAAAAMsAAAAAAAAAAAAAAAAAAAAAAAAAAAAAAAAAAAAAAAAAAAAAAAAAAAAAAAw0AAAAAAAAoAAAAAAAAAAAAAAAAAAAAAAAAAAAAAAAAAAAAAAAAAAAAAAAAAAAAEAAAAAAAAAAAAAAAAAAAAAAAAAEAAAAAAAAAAAAAAAAAAAAAAAAAAAAAAAAA//8QAFBEBAAAAAAAAAAAAAAAAAAAAsP/aAAgBAgEBPwAK/wD/xAAUEQEAAAAAAAAAAAAAAAAAAACw/9oACAEDAQE/AAr/AP/EAEoQAAECAwIHCgsIAgICAgMAAAECAwAEERIhExQxUpGS0RAgIjJBUVNUscEwM0RgYWNxcnSDoQUjJDRAc4GTQqJiskOCwvAVcOH/2gAIAQEAAT8C881uIbFVrCRzm6Mdk+sta4jHJPrLOuIxyT6yzriMck+ss64jHJPrLOuIxyT6yzriMck+ss64jHJPrLOuIxyT6yzriMck+ss64jHJPrLOuIxyT6yzriMck+ss64jHJPrLOuIxyT6y1riMdk+sta4jHZPrTOuIx2T60zriMdk+tM64jHZPrTOuIx2T60zriMdk+tM64jHZPrTOuIx2T60zriMdk+tM64jHZPrTOuIx2T60zriMdk+tM64jHZPrTOuIx2T60zriMdk+tM64jHZPrTOuIx2T60zriMdk+tM64jHZPrTOuIx2T60zriMdk+tM64jHZPrTOuIx2T60zriMdk+tM64jHZPrTOuIx2T60zriMdk+tM64jHZPrTOuIx2T60zriMdk+tM64jHZPrTOuIx2T60zriMdk+tM64jHZPrTOuIx2T60zriMdk+tM64jHZPrTOuIx2T60zriMdk+tM64jHZPrTOuIx2T60zriMdk+tM64jHZPrTOuIx2T60zriMdk+tM64jHZPrTOuIx2T60zriMdk+tM64jHZPrTOuIx2T60zriMdk+tM64jHZPrTOuIx2T60zriMdk+tM64jHZPrTOuIx2T60zriMdk+tM64jHZPrTOuIx2T60zriMdk+tM64jHZPrTOuIx2T60zriMdk+tM64jHZPrTOuIx2T60zriMdk+tM64jHZPrTOuIx2T60zriMdk+tM64jHZPrTOuIx2T60zriMdk+tM64jHZPrTOuIx2T60zriMdk+tM64jHZPrTOuIx2T60zriMdk+tM64jHZPrTOuIx2T60zriMdk+tM64jHZPrTOuIx2T60zriMdk+tM64jHZPrTOuIx2T60zriMdk+tM64jHZPrTOuIx2T60zriMdk+tM64jHZPrLWuIbeZdrg3UKpzGu9+0Msl8UnsMWG81MKelElFVN8I0Efh/8Ah9IcUw22XFBNkDLSG3ZVy1QDg5app2xWXpX7un8Q5My6HFIwVSEWrgMhuisvWnArzXQMXIrwKfxDipdCLarNn2QFy5FaBPvCz2wcAkX2BX2R9x/wijNacCvNE0hGAXwRFhGYIsIzE6IsIzE6IsIzE6IsIzE6IsIzE6IsIzE6IsIzE6IsIzE6IsIzE6IsIzE6IsIzE6IsIzE6IsIzE6IsIzE6IsIzE6IsIzE6IsIzE6IsIzE6IsIzE6IsIzE6IsIzE6IsIzE6IsIzE6IsIzE6IsIzE6IsIzE6IsIzE6IsIzE6IsIzE6IsIzE6IsIzE6IsIzE6IsIzE6IsIzE6IsIzE6IsIzE6IsIzE6IsIzE6IsIzE6IsIzE6IsIzE6IsIzE6IsIzE6IsIzE6IsIzE6IsIzE6IsIzE6IsIzE6IsIzE6IsIzE6IsIzE6IsIzE6IsIzE6IsIzE6IsIzE6IsIzE6IsIzE6IsIzE6IsIzE6IsIzE6IsIzE6IsIzE6IsIzE6IsIzE6IsIzE6IsIzE6IsIzE6IsIzE6IsIzE6IsIzE6IsIzE6IsIzE6IsIzE6IsIzE6IsIzE6IsIzE6IsIzE6IsIzE6IsIzE6IsIzE6IsIzE6IsIzE6IsIzE6IsIzE6IsIzE6IsIzE6IsIzE6IsIzE6IsIzE6IsIzE6IsIzE6ICQJg0AH3ffvZ/jSPxSeww8jCMuIpWoplpCZKYss1obDtQDm0pyCB9nuYUKIT45aj7FCDKOn7NMvdbs0g/Z7wTMISrj2SFE1N3JGIv2achWSoWvR6AIV9mvlOVPiEo/kGsGXfL7jllHFstnm9Mf/jXylwGnCweU14uWH2EKl8EGUlObxeyBJTWDCS4Sm3WwVX05rUPSEyhg8EL+4sU5r+SHJGYUq6lCttWXJYhiSdbfClKJopRBqOX+IP3ztP8EG/0q83fKPl9+9+0a/gqZcaTTQY/F+q+sfjPVfWPxnqfrH4z1X1j8Z6r6x+L9V9Y/Gep+sfi/VfWPxnqvrH4z1P1j8X6r6x+L9V9Y/F+q+sHHCMrQ9N8NoS2gJHm75R8vv3s/wAaR+KT2Hzs8o+X372f40j8UnsPmuVJGUxbRniLaM4RbRnCLaM4RbRnCLaM4RbRnCLaM4RbRnCLaM4RbRnCLaM4RbRnCLaM4RbRnCLaM4RaSf8AIbzyj5ffvZ/jSPxSew/pHXMGgmnsHpgS9q91RUdAjFJfM+phxX2a0uwtVD7TGKy+b9TGKy+YdJjFZfNOkxisvmHSYsyJr79jKcvNGKy+YdJjFJfNOkwpqUQpCSL1GgvMYrL5h0mLX2bhcFa4VaZTGKy+Z/sYxWXzTpMJYlVWqCtDQ3nLGKy+YdJjFZfNOkxw2VpBVVCrr8oPhUhT9VFRCOQDljFWMz6mFy8qhJURcBfeYac+zHVBKFXnJeqMUl8w6TGKy+adJh1qUaTaWKD2nljFZfNOkxisvmnSYxWXzTpMIZlHLVm+yaG85Ydak2kFa7h7TDTUm8i23ePaYxWXzDpMFmUStCSL1ZLzGKy+YdJjFZfMOkxisvmf7GFMqaFpkm7/ABN4MIUFJSoZCPDulRUltBoTeTzCBKy/RpPpVefrGLy3QN6oh5Eoy0pxTCKJy8GFYiCz9yj73i8EQ9iLTRcU03QcyQYSiUVb+4QLJpekQgSSy4A0jgGh4IjAynRNaBGAlKeKa0CGhJOt2w0ilSL0jkiYxJhIKmU3mgARUmGhIutBxLbdn3RBZlOia0CCJLDYLBIrYtcUZILEqP8AxN6BGLS3Qt6ojF5boG9UQZaXP/iSPYKQ0VJcLSjW6qT6N3yj5ffvZ/jSPxSew/pH+NLfu9x3UPMS+MtTCCVqcJAs1tg5InF/fu21OoNgYslNcsPJcXji1rWFobQaA0FqHnVidbNtZUbFEioP8chEOzFnDslSsJjIIF/FrDyEcJS62RPXm/JDTxV9oNlKleMIUCTk7IlwtOJuhxdpbq0mpupfDJSX5XhuF/CKwgNaAxLKUp1uw45hzaw4NaCJV+WQyxLLaJeSRVFnlzoK1YweG5jOGuTfSxsiyoffYRdrHLOW6kVaZbmUVWDjFFXm5Ppj7JUsyptGtFkf/a7k14oe+j/sPCK4piW/Lsftp7Nyd/KTH7ZhtLyXJHDuVbsgt0AFFUyGJNcyZo/efecO2nhfxXkhlz7l3AuPF/BHCC+gV/PLFSZN/wC9KkVbyWstf+UFxeCm8WccLPBvNbs6G7amGk4Y2DMgApqLv5gkoSttbjmARM0UamoFIQoCXPDcwGMm2q+tmkGhkVWi7gQ9905ygc/sguumTWQRYw/CdCSm0Oe6EBbiJJBdXZU6q8VF1PTDSC4qXbUtdA86nLfQemHXFYu02VLphHADU8mTJH2ctS5JgqNTZ3ZXxCfart8OPzSv2x27qkhSVJPKKQ0zM2XbTSjgGy22M70iMA9gJqjKwFBsgWCOXmh1p2kxVpZTjIKk0yppBbUEO2ZVzBqfFxSTQU5ol5Za0SSHmlUC3KgiAwsIYwjDi2kOOCxTRDTJS0xhZZ1TQU5VFKmtbroW0vEmQ407cuos8dA5IdbnFS7JWldgLV/hVRHISmG5QrVKpeQtSQyvL3wxKqcLIdaWQJZWUHLWH25hcvLoLCycBlsk0PdEtXANVrWwMu6v80x+253bvlHy+/ez/Gkfik9h3Kjn3aiAoEn0RUc8VHPClpSkkmEOpXXKKZQboqIC0EVCuWkBxJtX5DQxhUYQo5QL4qIqOeKjnhDiFioO4/xpb93uMVHPF0XRdF0XRdF0XRdF0XRdF0XRdF0Xc8TNMF8xH/beVHPBUlIJJyCLSaVryVgPNnB0/wA8kF9AHLlpBcQCgH/I3RWu4rimJY/h2P209kVHPF0XRdF0XRdF0XRdF0XRdF0XRdzxUc8VESviB7Vdu7MuONpFimXmrGOLLgoBZu5Of0wp+YUlupTwrChSvPDk46hA4toE1uPJGFewiwgpyk335AIS66XVKqnhBAFQaJr/ADAm3ilShY4KR/NYTMvBRt2KAqBuPIKwibdWmlUVtgWqXXiuSsIm3EIZvB57q5Vc+7UCZUSacAdsYRrPEYRvPEYRvPEYRvPEYRvPEYRvPEYRvPEYRvPEYRvPEYRvPEYRvPEYRvPEYRvPEYRvPEYRvPEYRrPEYRvPEYRvPEFSTNM0P+C+7d8o+X372f40j8UnsMfbP2m6p5bDaiEJuNOUw2860q0hZBj7LnTOS1pXHFytxyVJcUuyK2xQ8tKRizqwgKbFE2Bly2TGJKANhITcsVHpyQzKLtIK0AAWrrrtEIlXb+AEkU/9yDlhxL7qOE0KBQ4FcsYmuzekWglNn0UVWHZR4ospaRS0s8nLywqVK1i2gFNom/3aRiixeWkquTUZ1IxNdlVUitgAei/JAkyhZUhCRwlU9hENyrwbVVpPGBsXXwJV2ykYMeg14l9YccsJqQSPRfDjiF4vZIKS5foMYJvMTojBtdGnRGDa6NOiMG10aYwTeYnRGDbzE6IwTeYnRGDa6NOiMG10adEYNro06IwbXRp0Rg2ujTojBN5idEYNro06IwbXRp0Rgm8xOiMG10adEYNro06ImUIDQogcdH/bdeQpbSgIVLrIFJdIy0TXiHnhUkohXBTaKlX+giEyz2FaOCSkJs80JYeSXclADg/5hMo/giLAHCrS7m9EGWdw1rBjKTb/AIpSJJlxrCWkgVpcP/5uYVslSQrhDkhhCFMNEpSSUJ5IwbeYnRGDb6NOiMG3mJ0Rg2ujTojBtdGnRGDa6NMYNro06IwbXRp0Rg2ujTojBtdGnRGDa6NOiMG1mJ0Rgm8xOiMG10adEYJvMTojBN5idEYNro06IwbeYnREr4ge1XburQhYotIUPSIwbdoKsJqMhpFhGaIU02aVQnRFlOaILbZBBQmh5KRYRmiLKc0RgWbNnBIs81LowTV33absl24txDdLRpfCTWZVfdgx2xdF0Xbl0XRdF3o3Loui7cpFIpFNxf5pn3F9275R8vv3s/xpH4pPYY+1ZdbM67XIpRUD7dz7DlSmSVhB4w1/iMUYzTpMYoxmnSYxRjNOkxijGadJjFJfNOsYxRjNOkxijGadJjFGM06TGKS+adJjFGM06TGKMZp0mMUYzTpMYoxmnSYxRjNOkxijGadJhyURTgIv9KjCZNDDrK61Up2/QYeK7SEJXZrU19kIfdwdcJxEg0zqwu9xtP8AJgrcLq+HZCCLuesYw+EA2wbaLWTiwXJmikhdSlWUAVpAmVFKjaHGRT+YbccAKsKeLcKVvKoZemFhKSu/CKFbuSGgjBtvKWQsm+/lzYMw+lu3bHCSSBTi0gretAF7iuZaC8UrCZh/72qq8CoqAMp9EJ4D5RW6xXezYBZoc9H/AGjFJfNOkxikvmnSYxSXzTpMYpL5p0mMUYzTpMYpL5p0mMUl806TGKMZp0mMUYzTpMYpL5p0mMUYzTpMH7PbK7asieKBX6wlZbkULArRodkB2aoElVCVgVurQ+yC6+BbwmRtXJyg5YDjocwJXU1rX/jFavAcye2FzDza3CbxfZF1LotTJsBSyPvE83dDCF1wmCGU32zXRBU8WUnD3rKCBzVMB19XAwtCm1wqZbMYZagVZDwAPRa5Ydwq1BJePAtXgC+giXq2W02q1br/ADv5eWZU3Ui+quX0xikvmnSYxSXzTpMYpL5p0mMUl806TGKS+adJjFJfNOkxikvmnSYxSXzTpMYpL5p0mMUl806TGKS+adJjFJfNOkxikvmnSYdkkEURdz5TEswiXeLaK0wfL7YmFfeKCnSk2k2U84hl1ReT95VRKraM3mhHCdcVzcERhl2XApZ+74JOS8mEuqIXw62bdL68kYThIJdNsK4nopzQiYWbdl00Nj/K1lVSHbKXjw0qNriquc/9Ywz2Fc+8AItcG1yeyFW6BOFVfgjpMOulKLGFVcpQBtUyemGlYVtalG/BJ7Kw0SptBOWm+X+ZY9xzu3fKPl9+9n+NI/FJ7DExLMTCLLqAoQ39i/Z7arWDr7T+if48t+73GFttrFFICh6YLTVUnBpqni3ZIpywW2ysLKE2hkNL4wTQtUbTwst2WFssr4zaTfW8QWmioKwabXPSCyycraclMkJabTxUJHsEYJrCYTBpt51L4wLXDODTwuNdlgttnKgaIxdgAhLaRXLQQluhJrU5N7NeJH7iP+3hFcU+yJf8sx+2nshDTCRRLaAK1uHLBDGRSU6OeLKQ5aJvNwi6pgpYSouWUBRuKuWAZEfdAI42QDljASiFW8E2DXjUgNMipCEXmpuhTbCrlIQb7V4+sYNBJPIoUI54ShkUQEpFBkgIAVa9FPZv5XxI9qu3w4/NK/bHgKbxTSVE+kU36/zLHuOd275R8vv3s/xpH4pPYf0j/Glv3f8A4n9HM+K+Yj/t4RXFMALVIICDfgh2QlpzBmwlQUSLPBs2TzxgjaSSyaAI9OQmCCXk8yR9TC23MZUUJNTXhEZLuQw2wqwqqFHi1Fil47YTaS6u+Y8YbgODGCqgowCrd1pXPfBZsLNWSWgo8ADRdFh2wtN9rBp0QGbak/dENW+KR6OaGAsYqDWoQq14CV8SPart8On82r9sdv6Nf5pj3F9275R8vv3s/wAaR+KT2H9I+klAUnKhVoQ24hxNpJ/ROqDi0tJ5FAq9FPCy6qJwKuMi72jwNBWu5QVrv3XUtj0nIOeGUWGkp0+HcOCfSs8VQsk/o0nCTNoZEJI/k7vlHy+/ez/Gkfik9h/Srl2lG1Sh50kpP0jFW853+xe2MWbznv7V7YxZvOe/tXtjFm857+1e2MWbznv7V7YxZvOe/tXtjFm857+1e2MWbznv7V7YxZvOe/tXtjFm857+1e2MWbznv7V7YxZvOe/tXtjFm857+1e2MWbznv7V7YxZvOe/tXtjFm857+1e2MVbznf7F7YQhCBRKQB4VbTbgopNYxVrOe/tXtjFm857+1e2MWbznv7V7YxZvOe/tXtjFm857+1e2MWbznv7V7YxZvOe/tXtjFm857+1e2MWbznv7V7YxZvOe/tXtjFm857+1e2MWbznv7V7YxZvOe/tXtjFm857+1e2MWbznv7V7YxZvOe/tXtjFW897+1e2G2GmySlN/ObzpP6AgEEERi9niOuJHNl7YwLnWXf9dkYFzrLv+uyMC51l3/XZGBc6y7/AK7IwLnWXf8AXZGBc6y7/rsjAudZd/12QtpwIWcZcuH/AB2Q024ppCjMuXgZuyMC51l3/XZGBc6y7/rsjAudZd/12RgXOsu/67IwLnWXf9dkYFzrLv8ArsjAr6y7/rsgy9eM84RzVp2QlISAEig3fKPl9+9n+NI/FJ7D5vu+Kc90wx4hr3B4Tyj5ffvZ/jSPxSew+b7vinPdMMeIa9weE8o+X372f40j8UnsPm+74lz3TDHiGvcHhPKPl9+9n+NI/FJ7D5uY46MLk9FBkgTMwpNxTclRN2Wn8w284FE1FkuG7+KwZlx1lyqrrrwKXGGlhDLaWnAK0qTeE3RjL6gSLIolHJnGkKmXsIpu7JTJ6MuWBNuBTCbYNybV3P4Hyj5ffvZ/jSPxSew+bmDb4XATfluywEIAoEiLI5oWhCWXKJA4JhhCMWaTZFLIuiyOYRYTW1ZFeeMG3mC70eB8o+X372f40j8UnsPm+74pz3TEv4hr3B4Tyj5ffvZ/jSPxSew+b82VpYUpPJlHoiSUtbCVHIQLI9HhPKPl9+9n+NI/FJ7D5rOrXVKEcZX0EYq3/mVKPOTGKMZp1jDrMo0grXckctTDCvs18lLS7RpkqYxWXzTrGMVYzf8AYwtqTRZtXWjQXnLGKy+adYxikvmnSYxSXzfqYQzKOJtIvHtMYGTwmD/ypWlTCGZRdqzfZNDecsYGULhRThAVpUxirGZ/sYxWXzTrGMUYzTrGMVa/xtJPOFGGlrtKbc4wyHnG75R8vv3s/wAaR+KT2HzWH5pX7Y3ftX8g7/EUfbmvvV2nA0rAECgMSr05g5godClYKtBaJCv5gu0k3cVfcXxbVa0HPFpRZZtvVRjIopFo0u9MOPPYurBunA4egWoni05xDeGdxFC3jRWEvSSKiEuHBy4eeWG7SxarfUG6G1gMSwcdWhj7yqhdfXlguPNMS02oE2SpJ5yk5ImbbLDLdVBZQpeUjhH2ZTGFe+9cSTbxRu+HHaMTGLvOKbsJ4Vciqww2G20pBUfaa7q/zTP7a+7d8o+X372f40j8UnsPmsn82r9ob+kU8Gv8yx7jndu+UfL797P8aR+KT2HzWT+bV+0P0a/zLHuOd275R8vv3s/xpH4pPYfNZP5tX7Q/Rr/Mse453bvlHy+/ez/Gkfik9h81k/m1ftD9Gv8AMse453bvlHy+/ez/ABpH4pPYfNYfm1ftj9G5+aY9xfdu+UfL797P8aR+KT2HzWcOCeS4eKRZPo/RoOFftjioBSDzk7vlHy+/ez/Gkfik9h818Wa5LQ9iiIxZGc5rqjFkZzmuqMWRnOa6oxZGc5rqjFkZzmuqMWRnOa6oxZGc5rqhbCQ2shblwP8AmYaYSppslblSkf5mMWRnOa6oxZGc5rqjFkZzmuqMWRnOa6oxZGc5rqjFkZzmuqMXRnO66oxZrltn0FRMAAXDd8o+X372f40j8UnsPm+74pz3TDHiGvcHhPKPl9+9n+NI/FJ7D5vu+Kc90wx4hr3B4Tyj5ffvZ/jSPxSew+bbrmDSFUurf6IVOFJQLAvy3w3NOBsXWqcc19MGZc4K7N3DurlpD77y2rNkJvFaK5CPZDM04lpoYMVKU2eFzwZt7oU/5f5Zv8QZ37xtNi5VOW+8VgTT2EHBHCQLItc55YacwiKkUOQ+0eA8o+X372f40j8UnsPm2pKVJKVCoMKl2VKCii8CMXZ4PA4uSMC3Slkcv1h1pvBrNnk7IlpdkMtmzlCTGCbzef6xizFoKsXin0jFWOFwMsIQlCQlIoB4Dyj5ffvZ/jSPxSew+b7vinPdMMeIa9weE8o+X372f40j8UnsPm+74pz3TDHiGvcHhPKPl9+9n+NI/FJ7D5vzSiiXcUBkESLhclW1U5LvZ4Tyj5ffvZ/jSPxSew+azrhTQJFVnIIwLh4z6q+i4Ri3rnNMYt65zTGL+uc0wltC+LMrPsVGA9c5pjAeuc0xgPXOaYMvUULzmmEMJsiw8uguuMYIVs4wuvNWMEDWkwu70xghWmMLrzVjAeud0xgPXO6Yxb1zmmMW9c5pjALHFfXX03w04olSVii0/X07vlHy+/ez/Gkfik9h81vKj+3vJqziz1pRAsmpiXcErh/Fj7mtpvIfaOeGp6bDc1aXUpsUJpda9kPTDrTdgTeEWV0BATXJX2QzMzbyJMYaypalhRoDxYTNzKww2X7FVuAuUF9iJV13BMtJfDYUpw4T2H0wp9QRLTi/8FKQo86eeFPTDLIKVlLjgU8rJ/8AKDMuJWt8Ut4og/WFzMw2h9ImcJRq0F0F0MJcS2Lbls8+TeL/ADTPpbX3bvlHy+/ez/Gkfik9h81h+bV+2N5SES0ugKCWkgKy3ZYTLsIBCWkgEUyRistg7GBRZrWlIDLSaUbAoaj+YMuwU2S0mla0pywZaXLdgtJs1rSkFpsosFAs80LYZXZtNpNnJdAZaGRAyU/iEyzCUqSGkhJyim9X+ZY9xzu3fKPl9+9n+NI/FJ7D5rUtTBH/AAEYMc6tMYNPOrTGDHOrTGDHOrTGDHOrTGDHOrTGDHOrTGDHOrTGDHOrTGDHOrTGDHOrTGDHOrTGDHOrTGDHOrTGDHOrTGDHOrTGDHOrTGDHOrTBTZmmbzxF9275R8vv3s/xpH4pPYfNbypX7Yh152qrAFEqAJ9sNzClKRwRZWTZ57oSol1d9wH1hM4fvbQSkp5FXQ1NOOcEIFqpy1GSFTSkvJRQZQDS+kImHPu3FUCF3QZxaKVoa305QD7ITMO8MAAlNSa3XAxjK13AAC0Eg+2+ELOEcQeSh0+AX+ZY9xzu3fKPl9+9n+NI/FJ7D5rD80r9oQuXbWq0YSw2ldoCAkCvpNYxVrhZb/Tk9kYo1T/LLWtb4xVq1W/LXLBYbLWCpweaFyzSzUg6eaFSzR5Dp54Uwmhs3Gtf5EIRRS1cqu7wC/zLHuOd275R8vv3s/xpH4pPYfNZP5tX7Q/Rr/Mse453bvlHy+/ez/Gkfik9h81lmxMJUcik2f5/R1tzVRkbSR/J3fKPl9+9n+NI/FJ7D5rKSlaSlQqDyRgFDivrA0xg3usK0CMG91hWgRg3usK0CMG91hWgRg3usK0CMG91hWgRg3usK0CFtvBCjjBuHMIaQ8ptCsYVeK5BGDe6wrQIwb3WFaBGDe6wrQIwb3WFaBGDe6wrQIwb3WFaBGDe6wrQIwKzlfX2QhCUJspFBu+UfL797P8AGkfik9h833fFOe6YY8Q17g8J5R8vv3s/xpH4pPYfN93xTnumGPENe6PCeUfL797P8aR+KT2HzdqMtdxXCaVTlF0NApabScoSIqnn3CaeB8o+X372f40j8UnsPm3OKWlCaE5eT/6YW68p6nDyXj2iDb+5Sbd2Doml0Bb5CkgrUVC+t1FRZcSW00KbK7gm8XiFTDhQTw+Imt1L+WEl0lClBWQcn/KMKcEspW8aqHtA0QtTqmkhZXxRS7Ka8sNrdxilVctocgHJTwHlHy+/ez/Gkfik9h833DRtZ/4mGiVNNk5SkeE8o+X372f40j8UnsPm+74pz3TDHiGvcHhPKPl9+9n+NI/FJ7D5vzz+Al1rKSRkPorH2fMiYl0kIISLgTy+E8o+X372f40j8UnsPmqpQSCTkEJMw5whRA5BSpjBzPTJ1YsTHTDVixMdMNWLEx0w1YsTHTDVixMdMNWLEx0w1YsTHTDVhbDy0KQp0UIoeDDUu602lCHQEpFBwYsTHTDVixMdMNWLEx0w1YsTHTDVixMdMNWLEx0w1YsTHTDVjBzPTJ1YVjKL6pX6KUMIUlaQpOQjc8o+X372f40j8UnsPmrNeJPtHbuGclEqsqfQDzV3UrQSoBV6cogqApU7xK0KtWVA0NDDjzTdLawmuSsYZoOBsrFs/wCPLuLWlCSpRoBy7wqSKVO7K8Rf7q/+255R8vv3s/xpH4pPYfNWa8SfaO3ceS7+NUA2UYWi+DVQHOIm330ONoaeAQlpNglVK7YmZl78SVTKm1pCbKBy+mHnXbM3Zds8NF+TkguYVmVUt5YszFkqqO2A64mXmHlPueMKAOa+G35lSUow5/MhNQa3ERhnkoW2p9VlMzYLnKE0rCHShLtl82FTNFO+ikO2phKGisrRhyEL5+DDbi1vszNnhkLAHuJ2ww64tTaUTSllxs4T/ge6DMPuys27UjBtBH/tymH1zFZhaX1DB4Og5L4ffmmcO2l4nho4R5LUIdmVtyyS/wAZ8ptJNbqQsqOBwj6qNzakWoRMu4RCsYJdL1ks/wDHcluK5+8vt3PKPl9+9n+NI/FJ7D5qzXiT7R27llN92WMG3dwBdkuh/wCzWXni4VrvpaSDcaRYTfwRfljBos2bIpzRYTQiyKRYRmjRFhFDwRfljBooRZFIsJu4IuyRYTdwRdAQkVISBWLCaEWRfFlN/BEWE38EX5YsJu4IuyQUIP8AgMtYsItWrIrz7ktxXP3l9u55R8vv3s/xpH4pPYfNWa8SfaO39LLcVz95fbueUfL797P8aR+KT2HzVmvEn2jt/Sy3Fc/eX27nlHy+/ez/ABpH4pPYfNWa8SfaO39LLcVz95fbueUfL797P8aR+KT2HzVmvEn2jt/Sy3Fc/eX27nlHy+/ez/Gkfik9h81ZrxJ9o7f0stxXP3l9u55R8vv3s/xpH4pPYfNWa8SfaO39CFzLlotltKQaXgnvhE2yU8NxCVAkEWuUQlyYeqppTQRWgqCqtPYYZcK0VIvBIP8AES3Fc/eX27nlHy+/ez/Gkfik9h81ZvxCvRQ/oQ2+i0EKRZrW/wBMNNBCaG81JJ9sBp9u0G1Isk1vHPDTeDTQmpqSf5iV8Wo87iyPZXc8o+X372f40j8UnsPmqb4DTzdzaxZ5Arkj8X6r6x+L9V9Y/F+q+sfi/VfWPxfqvrH4v1X1j8X6r6x+L9V9YUZtKVH7q4emELm1ISr7q8emPxfqvrH4v1X1j8X6r6x+L9V9Y/F+q+sfi/VfWPxfqvrH4v1X1gtzC7lrSE8tnlgAAADJueUfL797P8aR+KT2Hzfd8U57phjxDXujwnlHy+/ez/Gkfik9h833fFOe6YY8Q17g8J5R8vv3s/xpH4pPYfN+YcCGlV5bolXEqaSB/iAPp4Tyj5ffvZ/jSPxSew+bxIAJJuh94OMqHBS2ocZZs6IlXQ0ylKbK0JyqQawlQUAQag+D8o+X372f40j8UnsPm9NrSKWuKlJWr/1iZmXZl0rWf45oYmHZdwLbVQiJJ0KoRxXW8IBzHl8H5R8vv3s/xpH4pPYfN6cQFUrclaVNk+9D7DjDim3BQiGmnHlhCE1JiSasFI5Gm7FfSbz4Pyj5ffvZ/jSPxSew+bykpUkpUKgw5JVFkpQ6nkt5R/MNSVi5KUNA5bGXTCEJQkJSKAeD8o+X372f40j8UnsPnZ5R8vv3s4w46GCilW3gu/0CLU90TWudkWp7omdc7ItT3RM652RanuiZ1zsi1PdEzrnZFqe6JnXOyLU90TOudkWp7omdc7ItT3RM652RanuiZ1zsi1PdEzrnZFqe6JnXOyLU90TOudkWp7omdc7ItT3RM652RanuiZ1zsi1PdEzrnZFqe6JnXOyLU90TOudkWp7omdc7ItT3RM652RanuiZ1zsi1PdEzrnZFqe6JnXOyLU90TOudkWp7omdc7ItT3RM652RanuiZ1zsi1PdEzrnZFqe6JnXOyLU90TOudkWp7omdc7ItT3RM652RanuiZ1zsi1PdEzrnZFqe6JnXOyLU90TOudkWp7omdc7ItT3RM652RanuiZ1zsi1PdEzrnZFqe6JnXOyLU90TOudkWp7omdc7ItT3RM652RanuiZ1zsi1PdEzrnZFqe6JnXOyLU90TOudkWp7omdc7ItT3RM652RanuiZ1zsi1PdEzrnZFqe6JnXOyLU90TOudkWp7omdc7ItT3RM652RanuiZ1zsi1PdEzrnZFqe6JnXOyLU90TOudkWp7omdc7ItT3RM652RanuiZ1zsi1PdEzrnZFqe6JnXOyLU90TOudkWp7omdc7ItT3RM652RanuiZ1zsi1PdEzrnZFqe6JnXOyLU90TOudkWp7omdc7ItT3RM652RanuiZ1zsi1PdEzrnZFqe6JnXOyLU90TOudkWp7omdc7ItT3RM652RanuiZ1zsi1PdEzrnZFqe6JnXOyLU90TOudkWp7omdc7ItT3RM652RanuiZ1zsi1PdEzrnZFqe6JnXOyLU90TOudkWp7omdc7ItT3RM652RanuiZ1zsi1PdEzrnZFqe6JnXOyLU90TOudkWp7omdc7ItT3RM652RanuiZ1zsi1PdEzrnZFqe6JnXOyLU90TOudkWp7omdc7ItT3RM652RanuiZ1zsi1O9E1rnZDQfwhU4lA4NBQ1//cv/xAArEAABAwIEBQQDAQEAAAAAAAABABEhMUFRcfDxEGBhscEwgZGhIEDR4XD/2gAIAQEAAT8h5ztXR0B9rRvlap8rVPlap8rVPlap8rVPlap8rVPlap8rVPlap8rVPlap8rVvlac88toIIIIIIIIIIIIIIIIIIIIIIIIIIIIIIIIIIIIIIIIIIIIIIIIIIIIIIIIIIIIIIIIIIIIIIIIIIIIIIIIIIIIIIIIIac8rrwTfZ+IuOqYiwsggRaexmtk8g7x2IH48IOj2R0BCAIRQaGhQzIFQ0FOZD5wElC/04REiTczoViHEHdkfkIC3+aEYhbUEsfJEAKWC10CmIZEwdRemLdVtq2wtsLbC2wtsLbC2wtsLbC2wtsLbC2wtsLbC2wtsLbC2wtsLbC2wtsLbC2wtsLbC2wtsLbC2wtsLbC2wtsLbC2wtsLbC2wtsLbC2wtsLbC2wtsLbC2wtsLbC2wtsLbC2wtsLbC2wtsLbC2wtsLbC2wtsLbC2wtsLbC2wtsLbC2wtsLbC2wtsLbC2wtsLbC2wtsLbC2wtsLbC2wtsLbC2wqTgp+R5fi2YnVA4HuewJA5URke3AJ4vW4qoSLheru8LGXztd2O7TJEwzKiPwU3N4qGKYJfgryT1YqUJCtjdCgjk9xY3MTAF0hcnL5IjIv2SwsSGQ2jbAxiX2rrttkOXb8nd+OG3Kj8LvR+GW8vDOXhu5L4eHsqxMEgMxxHVURwL1PU8u35O7nF5fk7uXHlARmVuq3dbut3W7rd1u63dbut3W7rd1u63dbut3QoCHP8AC/J3fsvKyjAxCgBMgVbAkOQCOI19VlGdN8cECiDOG8tReVr7ytZeUCABojtZeVDovlHhBk1z8rWXlA8G0v4Oup09VrryujpkQWqtZeUbWq6oOUOYci9j6siBaMwXJ6rrtXVEPh8Vse6caUjD/KIdF9rX3lO2OgOa5MFrrytdeVr7yorLm1ggut3P90ESd/8AZR6L5RowfbXZay8rWXldbo6owxoZh0eiKzAI9dv6cWHDqUBU24HvdCuGRKdgksmK66nCd05iMAbgWWNQiEPboof/ACkAdngqIEsG6iwMViokDzoUkyd/xKI6J1fYgY4F0FUUKBAhnLFJqpiJHwmCuB3znvyEXex3qcBy435O79x5NLkeWAlCCNECzpUumxdZYGTARm290Im7EKOMscAXwRpLEpowLJCCZ5aIegBO5RSU4Bijl0B4lqwgiayhhusCaIIrqtAnF3XTb47+IJwRZEIfKZDKekOHkglgeiEByHO9PtwCT1M+jxwDU2UyWQC0TKfUjafsQ6Mpt/xXdgwMo/YZCuxuQrUjX3Gy+aYwpVqSQDNkI4NeEkJEs6i0L25HuyN9AdQj0nUFZlIJuoS+EamFgr9oVMm3jxB9EmC9OZwNZKMdqyaxx1LH+kILlwQsigL+8CXgQZc2BlcjCschPhsUCxiXWDYzosS/wABZ+icWrARPW2CJTRyQCkNyBOQK5fDEVTcw0x7knfIDWZzAYgCx/aIKfOMzzg1Yuqo+oXO3XizQV478nd+cwEoHGRnDoEzRJpKBKAr7FHkHuhkS0FwVCRKOgCPsCNh8ImqBncAlYP1XUCBKAo3YyCYxJAfoW4/dAnxBPiCfEE+IJ8QWYJ8QT4wnxhPiCfEE+IJ8YT4gnxBA4gnwEbM7L8IxCaIcEAhOQTwgBBYa4QkyJY8ejyhYmsgh3IlHalgPZ0AoIPD6KA0/AB8QWYJ8QQOMJ8QT4gnxBPiCfEE+IJ8QT4gnxBPiCBwOA6gWj4+JzkN3YcJsvjDKWO8h8MgmCSaAZ2sZlSneKcG2MIiHTvhLQUwAITNouEMHmDoWjXAYlxM7vAQMI2gBjKn4RowaCMAKhAqFNMnRXBuLOQETnMh/urf1H51uq3lbut5W9rf1u63lbqt3W/of76H+2t/W/ppY4efHfk7vyiEZq6TKGR/cFBLTvvY8KjHZKKZCOQYWOkqWXYEE4ZdLIUgBlImDECCAeAm+7OZCZdA8C0VBNE+DtwPW4AOSvLA+CW6LUG0hKA8MLLQkElAz3qHELMgVNZ6xmIGTp7YCfGGhiIhBSPCdcECayWQ6qgFd0PStmcYQ2hbMW3FszjCB4QgVDZnGENmcYQLAJtiaONZM2x6JtVYGDEtt8IovOp1LEJ17BUABiIQxZtzzl1gqoGAU9CYQKRMh2Jh7FT3zDDOKxwXrByg/aMPCJZUhbcW2FszjCG0IqG0FFxEMbUWzOENmLZnCG3FEOp/GX2UcH2iYhqZg4GaoW6RRsFLuxJDgWJU5M+WKPlAAJAQWxUTRsBSwou+OymCAsP6J4lKDE2MuAwmhY9kGsOOiZAmwLImGC9iyBNgTvarBMMF7E2BexRgEzBMwTMEzBMMEDR7/AB35O78ojW80Q4DGVmwpm9DLLLKTLLWXnhFrLzwy1F5WsvK1l5WsvKErj6UdYTggd9ukFTiiNBySmsRY0x/fKIgjj7UMmDENeBSevZSDGgZeA33dDEsy82PQxCBhhqDQIVbi1hICOqZCgawiQLsWh0YE06nQTZmiVLuQB9E9QGwp0BgIvgIIFmaMuokOUgt9/jaYQn4ehVVVFlVFrLz+GUWTzZHO+wmU5YFsgDLKMGwNoZIonMdjFigPBwEADioiQQw8c0MiWYxGZVEg4ur+xesg26FOCSzCk4GTazEAMpiM0+MGva97yph9pVCgTlr4gIJ6h1K4X74L/f5gZ7r3H61VVVVVVVVVVVUQfUmRMHSVHiBU9SUZBLtNJa6EhIIw4ei3ldBM7hTQxayZ1Q56XT/RBO201h0X13Il2AmKAQKglpCRSArFZIaN1wnsxDIAQY/anZXukuQWSyr4FoH2g1E9ETFIZuH5VUwJOZ/LXseO/J3fk8wVQ9RkUMgZizwQ/RBOEn0dgefdFFXQz4YJjwDtVHVKqBDIoRpc7Ql1xQUgeaAZxRalAMGnbNAWLDpDQ2THC0YCAiAJVYd7oBMnWZ8lUTIMgZFCgB3EhgK5IR0iAOOA/ENDZ6pTEygVRKAB1J+HGzhq6YYp54TPGAJriVZVCB3QlHSDuit9qouke6F3KY7F4ABziUYBxAAGUJHY4FB1TCZAIEA4ItCrA6BYfnp+P1wfVymCbgyZMmHAwTJkSC4kNgEA35a9jx35O79l5Xfpynph6n0SmxBtoUNyJGDAny64gipwioRJIPsdkC2B9ieFOlslgBI73d1QvQHIHM+rURu5wmGddGuBsVAck5sgeZSHQ5UOiAUEnqTKgbBsLehp+P19Wxfp6njx35O79l4KQkQGLQ3wgF2OxwP6RHHcYsmBmfUMgjEIIiMJgwaEcW/JwGBxQ8JjA+P5zGYr5dEY0ZA+Rk+uEqbAgF3H6YKm+cTh/huN+Tu/aeO8ZamjMmP0fnDhw4cOHDhw4cOHDhwxyZmQLGVhHqiAbKYg9Db9Ihw4cOHDhw4cOHDhw4cAEgDUxJm4f0AoCCJBQGGGhADJpb0AAAAAAABMdKQhzRKOb0AAAAAAGBRa/mHfEIHUAgCBxvyd3MjzTsFruHqX5O7mR5p2C13D1L8ndzI8bpKLUcPUvyd3MLxiJeQzKB2es/ShJJkb3AQR9tbAkjrJuq/Sc9SofAydPonyCqCLkjqiIU3QJ2OX+Skeeq43f0b8ndzC8AIA6b5IBBgBgAGAC6OroYjrQayLIf0gb4X01sF0ZtCWUgIdBgWOB6N+Tu5keadgtBw9S/J3cyPJ5WGKrJQy2iKWBnOfqX5O7lt4Mx4xoC6B5uckfQZaY8oGprC/ugcAuq1qjyuv09UVESzv+CvCg6b7oBFevqm6F4hxb91Yj7f41VT6HjC1UAGTErM3quu09VqjytMeUb60gPlAGgQuw3W/vG/J3ctvPhd7ja6OnSmIzCJB6qZ1SP2BPQIRpRn3ncVc1THuhg52M0xO+nSRnTp1jm0iKyjwfsxAmQkhHHAk6I0gQR50+hicqdD0tSR7XQCOQiMkyZKqDUSInBEqAiO7xznxhrZ478ndy280DH8GTAJhgmYJjMyYYJhgmGCaGTBMEww/DXseO/J3ctvNAx/T17Hjvyd3LbzQMf09ex478ndy280DH9PXseO/J3ctvD11/wBMgWtZ478ndy28HcVfkCgQQ4P6QC+8QAJ+G435O7lt4QCCCHCbf24r4BWjvK0d5WjvK0d5WjvK0d5WjvKfgShl5p4pA760d5WjvK0d5WjvK0d5WjvK115T1rg74JQAAAAsON+Tu5keadgtdw9S/J3cyPG66i13D1L8ndzA8rAZBvQbqO2YquASwoESCITIwsWholUoFpY3iFPGInFca3Il/bGhMQgSQGXAF9asiYEAicXMyDfacWWc5JhCNBQkALhxjPoX5O7mB4BQAxBuEHWQgK0EhE5Nknqz90SjGFH2UJXD3yMEBAvVCZFEcPUvJMNNIZyJsMHHJ+sExAED0L8ndzI807Ba7h6l+Tu5keadgtdw9S/J3cyPH5Dr5XRDsB/mJ9S/J3ctvLb9pDM9AhMxqPtJ6z1iQWEEtJYsHt+HdwzEQQxRvUcZaF0pvC7IGASagBg9V0tPC7J6j1HrPWITh5Ae4Qk1QBQMGfG/J3ctvAHfsLe5/DChyCSPhB4EAjOIGDCgAfDOZG80oNbmx2wXhmo+p1AKX7AwExKfBHAAXNAUIiTsOK0IClQgUkw56EPorJDmpB0GGtJLNCEZyyTAqtH4QN1HsWcb8ndy28nopP4ECCCHBVB/EB8k/EgAqC7bSfFHjehgUNTJ/wA16HUndYsNM5T32IjEI2R+oXNkpEM4fwVDtJAoBo/DXseO/J3ctvCBaGM4LGpW/Vvdb9W/Vv1FP3+t+rfq3+t+rfq36t+rfq36t+reqHLMcvfjvyd3LbwavFNAAiq5E8QBJPi1zZBgQw90ogAL3eJC0uKdQncMIqRgBuHunQdZEn4sGHujGoIsEsbOrncVXphRA6lSEzpAMGQdFK8HCSrMLQ9Nnoa9jx35O7lt4GsumqF4diwLYhEZzy0wHqws6iYuM1DV6jJk+RMkzCXAOTNVQmxAA5nF05T2/wBI3ogDAgDZCs5JMEHqIKwFY4UE5jOCmFA9DXseO/J3ctvNEx/T17Hjvyd3LbwBw05g6P0wFxKeqI9m435O7lt4MCBJIQ7QBbu9CSSSSSSQS5U5CIkBHmPQkkkkkkkMY4YBvsEDBgtxvyd3MjzTsFruHqX5O7mR5p2C1PD1L8ndzC8oogwxZjnwrsF8JTAA+wREWIg4PwADkgD0b8ndzA8MA90gT7gJDAiBKNggeVCQBKUcLk5FMmgssMaAtRkSq/iYWDsKYoNi1kgTHnAU4QNElxYZEI+gALjNILzpA69EMEYZEl6IlZdfQvyd3MjwgIyCD4R63IH49S/J3cyPG66i1XD1L8ndzI8wVWWQdCLSMIiT6l+Tu5aeEqYDkoA4fUgdcFqv9Wt/1a3/AFa3/Vrf9Wt/1a3/AFa3/UZDbGE+6CtgDD8rW/6tb/q1v+rW/wCrW/6tb/q1v+rVf6gCW0V+oRTHCIPC/J3ctPPlhPAdi0sTF3TjgHoSRGQeqgwHLB7n8CoEGkGhwKAmOJnGcohVgcOkMuAMdcUAIEEOOMSQ5YPc8YBsAj5cL8ndy482Yv5uOQSgoLr3BofYoqG0gESgbKYGCNBocOyZhzkYFWVzRA+JEMF0902rfGXK3TSL7qgh1134v/6moUf530eF1mB834dGGzI+h2jEVWSc2oS6ADMT7NCZsE1V+AycgOi4twGWLNDojoEYHNTKX4arj4X5O7lx5swGDiiqJgPsyMkGd7wJQhBgVToQ+CFdoqGiVTaMuEJAFgnhVMgvqhkAgAzgUyQDCoaKOjZIqYM6skqDVRPiGeKsiWRegJZAIAAGBTJBiCyXIviu0dPDVcfC/J3c3vNtVx8L8ndze821XHwvyd3N7zbVcfC/J3c3vNtVx8L8ndze821XHwvyd3NTzYpzWIPpaLAm4a/BVZTGi6GJAmEg0VHJoWq4+F+Tu5aeOcFxMgUCDP6EqYYNLj2FRsI1Lm5RBxEAZx7EaUhCkyU7PPw2PC/J3ctPAAEEODUKTG1H2Ai3opJJJHDUFuiUJTGz7vQSSSVKhuFQS/Q5ohoMAYDhfk7uZHmnYLU8PUvyd3MjzTsFruHqX5O7mR5NFhL+pCc6nsHlHqX5O7mN4BAAqTQJtTQrmRMNfU+ZF0DsA4I9O/J3cxvGlITYi1HnkkxYGARp53z0KLit0CCw/fp35O7mN4Wf6CFnZH4lfPUI549gAggy+bjeEenfk7uY3gEIDEFGGFaB9hCAbfGfu9QoC/J3c4zLsnd+NCHI2BBA0Z82WSpUqVKlSpUqVKlSpUqVKlSpUqVKlSpUqVKlSpUqVKlSpUqVKlSpUqVKlSpUqVKlSpUqVKlSpUqVKlSpUqVKlSpUqVKlSpUqVKlSpUqVKlSpUqVKlSpUqVKlSpUr5Ij7e7nwH/Zf/8QALRABAAIBAgUDAwUBAQEBAAAAAQARITHwQVFhgcEQYHEwkfEgQKGx4dFwgFD/2gAIAQEAAT8Q955ZOZE8rg+so7du3bt27du3bt27XIHoyUQEgJASAkBICQEgJASAkBICQEgJASAkBICQEgJASAkBICQEgJASAkBICQEgJASAkBICQEgJASAkBICQEgJASAkBICQEgJASAkBICQEgJASAkBICQEgJASAkBICQEgJASAkBICQEgJASAkBICQEgJASAkBICQEgJASAkBPQGUBdAUbL0W7X6RTAJMQFSA2sjwFEBJML0RuUQVNQar5BMdmWZzAGNZKYw2gMGJLbR0NdYWMNQ8IFZS2F9JJl0FZyQSWCKgXgpxYHcIBAq0BRtXAEEdl2u0sosSkaLqg521iATRSwt6DPFjdFghntAMNwIb0T8bmwPE2B4mwPE2B4mwPE2B4mwPE2B4mwPE2B4mwPE2B4mwPE2B4mwPE2B4mwPE2B4mwPE2B4mwPE2B4mwPE2B4mwPE2B4mwPE2B4mwPE2B4mwPE2B4mwPE2B4mwPE2B4mwPE2B4mwPE2B4mwPE2B4mwPE2B4mwPE2B4mwPE2B4mwPE2B4mwPE2B4mwPE2B4mwPE2B4mwPE2B4mwPE2B4mwPE2B4mwPE2B4mwPE2B4mwPE2B4mwPE2B4mwPE2B4mwPE2B4mwPE2B4mwPE2B4mwPE2B4mwPE2B4mwPE2B4mwPE2B4mwPE2B4mwPE2B4jsD+oUGKoKNX6s5ooPFJBVA0Y3YcrjYiIDfOYSw+zMsIwqzbS+jXxVDfmkF5Q3NmBWx4Yd724vTQhAqYvWpMphn4Ve5qsMLP7MQ3ykXA2r4cACgxXMstFy3G4ub/ABUAgNUbSHLQF95vSwryBp/Neb7iGGa9gO+YnPLHlSLH+IKPLH4bi/8AXFg1+yBvf8sNK1xgakfDx8dfOb/1xSetR6SHVIALxytHVOKuV/8AiobONnXpbkBPxOfi8/F5+Lz8Xn4vPxefi8/F5+Lz8Xn4vPxefi8/F5+Lx4GHAC/vRs4A5dtV3+Qws6o9CrSBMzlJeEUtuaNRdQEFFefiHRIZ4UI8GGPHd4SfvSkwvzM5BNLOcpEy6Khp0GbkBzC7yr9NDytmqTJLmazqE5MsUarzJnqp36cheP1B0itv6q2UmzS0CBjazMrw1qK1ah3pb+0ayYuGeFCJhblYBrLTE88CWeFCBWyk84GsZPq5QrlSV1zUbhyoZgqFbGbeMYGt09DSuJY3eLCupNJZkUuj9dajAAeqOJgheVaL8ixiDG26R7R7SrgCS0sL1yKhdxS8VDBFyaqequ0mYK7bXQAYIBYWYaQiSerW3Cz5mqV1IKi5qCVEJmLsV0mkhhIKOssnZE34GgxrwgLcFncwUM84IMbbpFoN4EF6UpK3qo62nmL/AHg2ciTxN/fgRglov8y7QplSO0JXZKx0aMeyY3TVJ20XyDY6Ug3VImxQvATR2+oFLWV/62IsCEWrBrLnUKciIsrvE6RqoOlRZ3Uq5UpWumESaFG5wkVXGAqnVh3yDjRrl8GXgyVnjKaJIF6mTNRJDYXAZ+kjjir6lazk/wCoA+Y7ofRDZ5xdU6UNGC0piTRbbJQgtQ0ghQCD2E5lIH9hFbcG0VrqERbI77i9qWrV+CO7LgVYYSSDfZNQ0lQYi3VUxVfIBPtw2qFyIiCzdYS8LDb2ulqkV4TPF4qNcaCbgwzGHl5YiF2C82Seug5CfB+iv6Y1969aIrHoUx7QUhy7UKUqGIU8Y7iErZQWTdUwGupuGlgutBbpvsQxGut5JMDlWRR/bWnUxnFDtN14VHD8iWKsFqg0kwPsoRitYzDXuWLeUPIlPoSECDrK0ILGiwauYigahZQRCJCEUb9RHzj/ABfQGaSNSpf261Bt9areULzMZVghSpdi6y/E0W5MHOCAEHA3rDf3ghlbgKOKzTr9mZ0aeETQ3aC9bgYorXWSkhWo5zkEFhYaVwgqIa6VlsphF2lPKCLBat4lyjQYqyo+SExZADXMwcjnGVbl++XLfMw48iyVt807xCzJQwWRMtw1WWSWC270q0f7JbyU/MEdSL9XWssyODUvXoRTXmumozXHSBaLwEtOlRwCtyEPelOaAqjtEOlaFtjz5YIUphjDfp/M/wBS9Dj+tOimOpWq/vIcedjJeqPg9LMMsUinhcC4ImLv6FaF6nOcVDopzJM9Wz315aoHAqwR0RM6xCArmijHa7WV7TGR05kzcK581YrwqnFmoFwA13QHaALJ0gUCqGVqA0YpKedWjwxwYtPfFniBXk3LWrhTKY0OnDD0SwKJQoiQ2shxZHmjlGO8/KPwmFeZP9Y+iz0FL8JhLE4Utw8QEWMwnFkOLJj977Xn6MNrfu9goNe0R5DPGG6I09A6uvaoKA6nxAS0WIDicElIWuoVbB+zRDpamLoOYxEV1arVh6/S3MJqQu72pdYS7lqgVDgKlUUFWlNbEuDlYUlsSJBirY65hrOFm4c5JecB3wyHFycABEwg6UB8HIuGVrqqiZBN16kyjtZc5OULFhG6LxBmpcjBXQcIO02h4ipg+yKmD7IqYPthtj+pvDxNkeIqYLsipguycCfZHRC7IkwfZ6KKmD7IqYPsmwPEVMH2RUwfZDWapE9XnPIpYCNvcYjs9L2gJVgyq8Jc5VLwvhCU2l5XxuXYogiS172OrlpagrLU0Ip4oG4ATfRJ4mtKOMmqPKG4fQLkEAbg1DUPMiVzPahVZvDxG/EDd/iKmD7IqY+2ipg+2UcH2THWTn/hH+8U/wCR/wAlFDB9kKtx9psDxFTB9k2B4mwPEVMH2RpKNu7IEAKCv1byZatd8Qmw9qO4GoJZykMeCsOSmJW245rUxhZSWxdtb4GEYYUAoBWagNYYQNaArkRtddVU6pS95TUAsCqyQqrIyALdKppKnrFiheaaHVlQWSU3kskQGYPAMrRS5l0xrqDErHsdZ0MRLQjCQWdHEBkEeRjTCCVN0E6CdBOgi5p+04bX9HhpYu/IMy5UPZMtVQojf3mb+8ze3mb68zZHmbx8zHvvv6UjZ39+kTdPn9OKZEjDa0UIOdkz8QYZ8qY43WPIZc3EeKZlV1cDKbXIHAqLxApjVgoulsU1ssFe1sjbVGJOYarcI1NENsmGnHhllmosJz/KOHnco403LQW2vyamGhj6RCx4GCZEQs+q09KlxPjoYFFU8jfGNK3jLAiGhDNv+hK6LDqQTCYFtsKXyfpUkvBjDPc3mbm8zc3mbu8zf3mPC23Wb+8+lbc/mbO8x4e+6xy20TfcFSt811Bi7Q5uo10mTAkh16dlEJ0iVFVadRUTCVsWlKPsEoqkAktBgtYQ6Ae5b8UY9LMasPgiilBnoJGkRxiSviZsKgGhh0ROggrWpgOvSBEJqBDTVWQaLmuuw/l+svWuoOeSM3N5m5vM3N5m5vM3N5m5vM3N5m5vM3N5m5vM3N5m5vM2d5lBaqXCtNWtzLou1aqWEkzzIQPyMUTKEQdh8IXCzl/bRYfeJ19yIVTwGm+C50KsKz5lNuGEfk0FlDDVRQUKygWuAtSn09JBQLNmkVEFJ0T0+ZeNBtE/w4xqW2bK00aJDeAKy7JYDimsVAl18OH6ifRqGz15ht4LzCJ+yxUxRQAAAHT9jddyzBkABmjY1C41tt1+eoL4q0xzXK5aJcvB7hGUqCCobHnQC+ECpKFZrCRjYxLYCLoY5fqCS63RosCIDvAGqxRB1AgkTwa3BIGgXV/nLxt25DCl8ThGcoDrxaIj39VZpn6SG5/UP+Y/qAQCUpzswWwpDugGsJw7FmXkPkZjh35IFGoprdXAyUpqVRzqLygUuzEFz9NaWMKFIqcqgZbWwihqabbYgFo8WO9S6lOQ56yuuDQSaIYDipWNfTgMdy6XVHlH7bm4zY4s3RKXYEqIRKlDgQF3RKtA+0bI0WaMLLolekq8CEEg2qtrpgAAAMH6ifvKhs+HJfv7H2LlK6y2c0xbzznOllccF4xQA8VF1ObkbitThQfAEW2plBegB0vjiQUkKpRLoEYmsLU57XqzBWsZrg1QsmFWVMtdFWDcPhQuw6+asQ5K5UoPgAUrbARbhA/Qd9P69oP2ZiH95cNnNg2daFfJSQFD4TiGoOj+yCJrmCLjzAo+oBTRB+HEz7YOHA54r0p9FMp5ymVKixMSUZL1lMABcKeJD9d7WUPL9AS3c9XBf+x+vy5yQeS8Bh+xUIqSl+FAR5A/vRs6M3UABwUP7HJcuXLly5cuXLly5cuXFbAuRHcY4BYuh9TMLlq02c0VKld1+whcuXLly5cuXLly5cuXPlJMDRAljghD9g1RwCxHgjCeUvTxYjofQZZZZZZZfPwtSwuSga6KWB/XZZZZZZ+E+I2ffVHwUqah1PA6A6H/AMjjZ5qBs81A2e/RDmNUVxwX7rGzunaLBXykTOSpIPq5GcQxqJ1aif7Z0IWL6HKoJNCmKt1ybAuMCDc9GS3VyuDHyVYtYcwIOuXeJrh3ovSXS4i1PhLH7MqvdI2f4klZ5IubpVDgE5I0tBq8Ygx2hhy5RWNFbNoYV+AaNFYdpbc2on4rc1AjvQIDdHu0bPUB194hkbPYwFBZdFOpdxpBhKA/yF7nGz1P7Gu9UYa9CEKFxW+FB6agqmNTB51Fr20HTukfSU5V8C25sgqNy+Ygq6zRqgUFIUAR/ghJpBVW6dYEXTJudQfJV8C1mUPEZzw1HoKT0lKhFk82z7iQiqSgriwaIlU9vDZyXIaLu/UqOpP6YVrRG+KhwyqCdkG1RLJlFqrIqB5CWownDRvvAsF40ND2XGNFTgS6NkRHVHpJo6YpEN8cyM29K74irsqe5gAsCdW9cuGlIEOfJE0zWpBatExcjn1Bwwv28w2ffef1QSklFFCzRhcoq4FdCnkSkqtGhXONCiq0rEqrDGmJcUirsKi4FKlHAVyjYYIFwNKmNKU8K/QT29UNn33n/Zk9vVDZ995/2ZPb1Q2ffef9mT29UNnKx4/3/eMDxs+kaNeK7XIWHBIgiaN/sVAtY4dlLSgLxKfbw2c8iCIliPCLEh/52I+g9evXr169NbatNOqWzUmu1B+gevXr169yOvf9RaCGxagKAOR/6qNnmoGz36oXGfI92kDZ0cOihap7YdmQGrfLS3qkyrUubmIhdFIS8ZRdS3HqJHvGdVQQQRHNo0abvNR+VLCvLbKkaRXGuydgUP8AgYmlDLlwBM3RmhhELuhKoQWX7oGzuhPpyajGsQ9gt0BBp0j+v1EArqBoXzj4Ygcmde9yvLOeRdewy/mCtA7pa0HKLp86NRpGgswpWF1YQHCpTz0N0r0OSoD+kH/5OGzzUDZ5jBs43rs/GqdahyTq8yV7nA2csRKporV+ECLlaKjoAZ+G/wDJ+G/8maec2f8AkA7ogI8lhf8Ajl/8cX/jijGAmkYHQ5UAxqw4TbLy1rUdZgMlOEN8ob8IsXVaMdQ+xiz4M/Df+T8N/wCRhwAv3YFytrfGzS3Ne3g2clcU7n/kPUKzZBKmoXWLXCemWmpX4NcqpO+M1jPIFK+fMhduGu5A8rjTJ2vsqi4YNYy+21lC4avEuEopysgz+weC8vwBcz2F2xWLORBjQ460VNIzhGPjZYEKP0AE1H1n8db7eGz1/QGLsCkSxGCU9DwOUAZiYAeCQIEQBTM8iqqcY5LmRpqBsbaQAiCKuokw+4GcVygtkoqJ8p7cOnT4x262YfIQAAoCg5V+gnt6obPbXVHJwlPQzW/RBhhnB/eehDSa/wBMMIMMMMMMM8omzbd8Jfbw2faOeHfby3ULWkoGJhoVoQrPCkaDbVGcjPQmMREfXMlfJYMVW1Ze40RuGSNCajhadMUTIxNh2tJxpiTKJgdjUUIm9TBnqgoa4mQ+WWRuiVgjUWzRV30dlfQJ7eqGzg7HOFMnYVbsQ1SFNNRWvmtJcVRJMXZdUAuYkCNpaIwK8BJTMWGpBaryGY9FRN06c5wY1k8GlMywLuMIRqkALReWAsBqLMXjP60AdkKip0Q8AVdi1+gT29UNnAhz/t/sySrl7dGznqEv0Cx7wf2LAVSC8i49n29Gz0SuFsSB0AVazubm+fE3z4m+fE3z4m+fE3z4m+fETxT7qU3yiOCwVCBrSb58TfPib58TfPib58TfPib58Q+19QZPgGaYjh11VbV5v/rI2eagbPNv3L7tGzqBVALVZlxqLAF0UzSVNd8HComGCzQmN5yQS6UiA0tHolGKtcGfdI2ca+1PSAfYKgMOk9WhvB14wkxuOj0vrDA3RzShlWBgsPl5YTwUiUoeGhK1vlCPfluWvVdVTU5feuK2l8aGX/tGaNelAhKZN/ioGvuwNnTsKAWiKXuRHVC+8Bs/yXvFODZ8WObeQOF1CVFm9FEAe5hs5P0OSCDc0brWibD4Q/yEfikfikfikfikfikfikP+FhXfKDOpGb5EVCPxSPxSPxSPxSPxSPxSPxSH/IRREdljHPaLyHWfANRn24NnZWlnVAiVUrv9kHIwQERE9AaYAFRdck0J3eCzQLl+tFQwF1+gwES2O5wL4y4wHHrT0Bfq20OawQgiCJxGWS4paTvBZwOsuYZQUQcc17cBs+38npT6XgKxkoiu3vTEkAslHA8kJMGv1gJUeXnMUkhwXQYuUit6278gGDvSOJ3aDCsXey1CgFzUWgPMC3VKga5lNFw3xmRUpg5R5TkeV73XQdBOWzIVWgysnbbkIgWgpG7e5JIzWXNvbGIhVY6QLU+cJqlqzSg9ulhs+38noGRjU0pOLeaxBKaP4KICyK0lYWi63AolKc+cVG+sRp2l7bda9nVZK1HqoGEKGLt0hNLmnGAIq6TTXMhfS2Ag+fJG0NSqS2qq5xPcWzS6zV211KTrZxWDBU1p6F/EHxiFmrgDzi/ZsBp/0jNtASjxwAiCKoSnzr7eLDZ9v5PeJYbPt/J7xLDZ9v5PeJYbPt/J7xLDZ9v5P2Vnt8sNn2/k/YmAA+49lQkch45pLS3RqyBhJS8VNwhcfB2c05Ns17dLDZwtI6MGsAA2OROv13SNpBZ6K0uCFF1UttXItxECW+VVoLBIxqG5RS1HAjb2+vKXcPbg2cb4ETRHEb1bsyejr0Mx4ffOJp984mn3ziaffOJp984mn3ziaffOJp98hwxXDYIAogzWUuYmn3ziaffOJp984mn3ziaffOJp984mn3zY0ffNyTDCLinaQO4QtAMB7nGzzb9y/wDsI2eYgbO2ABgYE1fIlxBV6YyOZLz7vGzmWVXUBxWMtoPeur8MxuZpvnr4CuRKxH3cNncP0H8J8LYq9WbpAlhyGHA4hxGC5M4EQnRQ+7hs5N2l7U94bqM6DgnEgG6Dfy8iCvPI0I7J7uBs7qKDWIzXaDyXIcoSzx10S5GjAXioD9gM094x3A60CWisH3ZrcOHDhw4cOHDhw4cOHDhw4cOHDhw4cOHDhw4cOHDhw4cOHDhw4cOHDhw4cOHDhw4cOHDhw4cOHDhw4cOHDhw4cOHDhw4cOHDhw4cOHDhw4cOHDhw4cOHDhw4cOHDti+AXtKzdf6+7O7O7O7O7O7O7O7O7O7O7O7O7O7O7O7O7O7O7O7O7O7O7O7O7O7O7O7O7O7O7O7O7O7O7O7O7O7O7O7O7O7O7O7O7O7O7O7O7O7O7O7O7O7O7O7O7O7O7O7O7O7O7O7O7O7O7O7O7O7O7O7O7O7O7O7O7O7O7O7O7O7O7O7O7O7O7O7O7O7O7O7O7O7O7O7O7O7O7O7O7O7O7O7O7/wDqcfrcX9D/APof/9k=;" vertex="1" parent="1">
          <mxGeometry x="-50" y="-60" width="901" height="622" as="geometry" />
        </mxCell>
      </root>
    </mxGraphModel>
  </diagram>
</mxfile>
